<svg width="279" height="244" viewBox="0 0 279 244" fill="none" xmlns="http://www.w3.org/2000/svg">
<g clip-path="url(#clip0)">
<rect width="279" height="244" fill="white" fill-opacity="0.01"/>
<path d="M218.937 243.747L194.833 110.817" stroke="#E5E8EC"/>
<path d="M218.937 243.747L238.163 104.493" stroke="#E5E8EC"/>
<path d="M216.557 64.7099C220.15 81.4632 195.557 114.713 195.557 114.713C195.557 114.713 159.483 94.4833 155.89 77.7299C152.823 61.2053 163.467 45.2419 179.901 41.7213C196.335 38.2006 212.585 48.4023 216.557 64.7332V64.7099Z" fill="url(#paint0_linear)"/>
<path d="M218.937 243.747V87.0632" stroke="#E5E8EC"/>
<path d="M277.853 70.7299C274.097 87.4599 237.813 107.317 237.813 107.317C237.813 107.317 213.547 73.8332 217.303 57.1032C219.658 46.2043 227.679 37.4065 238.315 34.0571C248.95 30.7077 260.565 33.3216 268.741 40.9043C276.916 48.4871 280.395 59.8729 277.853 70.7299Z" fill="url(#paint1_linear)"/>
<path d="M249.97 43.8966C249.97 61.0233 218.937 88.3699 218.937 88.3699C218.937 88.3699 187.903 61.0233 187.903 43.8966C187.903 32.8095 193.818 22.5645 203.42 17.021C213.022 11.4774 224.852 11.4774 234.453 17.021C244.055 22.5645 249.97 32.8095 249.97 43.8966Z" fill="#DDE2FF"/>
<path d="M261.163 114.743L265.467 117.709L259.243 126.738L254.939 123.772L261.163 114.743Z" fill="url(#paint2_linear)"/>
<path d="M212.823 121.247H123.993C106.47 121.247 111.37 106.71 94.0567 106.71H61.81C60.1723 106.71 58.6031 107.367 57.4539 108.533C56.3047 109.7 55.6717 111.279 55.696 112.917V243.863H219.03V127.36C219.03 125.722 218.373 124.153 217.207 123.004C216.04 121.855 214.461 121.222 212.823 121.247Z" fill="url(#paint3_linear)"/>
<g style="mix-blend-mode:multiply">
<path d="M57.0733 243.747H167.067C145.203 210.543 123.34 177.877 101.477 144.673C89.341 145.438 77.7263 149.882 68.18 157.413C63.9665 160.774 60.2369 164.7 57.0967 169.08L57.0733 243.747Z" fill="#DFE1E5"/>
</g>
<path d="M218.937 243.747H55.6033L98.77 146.89C99.4758 145.318 101.037 144.305 102.76 144.3H256.433C257.913 144.308 259.289 145.06 260.093 146.302C260.897 147.544 261.021 149.107 260.423 150.46L218.937 243.747Z" fill="url(#paint4_linear)"/>
<path d="M55.6967 243.747V80.6934" stroke="#E5E8EC"/>
<path d="M55.6967 243.747L41.0667 107.037" stroke="#E5E8EC"/>
<path d="M55.6967 243.747L74.5967 99.6399" stroke="#E5E8EC"/>
<path d="M86.73 32.9767C86.73 50.1034 55.6967 77.45 55.6967 77.45C55.6967 77.45 24.6633 50.1034 24.6633 32.9767C24.6633 15.8375 38.5574 1.94336 55.6967 1.94336C72.8359 1.94336 86.73 15.8375 86.73 32.9767Z" fill="#FF8F73"/>
<path d="M114.637 63.0534C110.857 79.7834 74.6667 99.64 74.6667 99.64C74.6667 99.64 50.3067 66.25 54.0867 49.4267C56.4416 38.5277 64.4626 29.73 75.0982 26.3806C85.7337 23.0312 97.3486 25.6451 105.524 33.2278C113.699 40.8105 117.178 52.1963 114.637 63.0534Z" fill="#DDE2FF"/>
<path d="M62.09 57.0333C65.6833 73.7866 41.09 107.037 41.09 107.037C41.09 107.037 4.99333 86.8066 1.4 70.0533C-1.26786 59.0823 2.23329 47.528 10.5421 39.8832C18.8508 32.2383 30.6561 29.7093 41.3674 33.2794C52.0788 36.8496 60.006 45.9556 62.0667 57.0566L62.09 57.0333Z" fill="url(#paint5_linear)"/>
<path d="M114.649 91.5732L119.771 92.7231L117.358 103.47L112.236 102.321L114.649 91.5732Z" fill="#DDE2FF"/>
<path d="M191.801 0.754395L196.328 3.36773L190.844 12.8651L186.318 10.2518L191.801 0.754395Z" fill="url(#paint6_linear)"/>
<path d="M146.393 28.3101H151.62V39.2767H146.393V28.3101Z" fill="#FF5230"/>
<path d="M3.45333 101.227H8.68V112.193H3.45333V101.227Z" fill="#FF5230"/>
<path d="M16.1765 14.1765L11.0544 13.0266L8.64173 23.7739L13.7639 24.9238L16.1765 14.1765Z" fill="url(#paint7_linear)"/>
<path d="M259.713 13.488L264.932 13.199L265.538 24.1489L260.319 24.4379L259.713 13.488Z" fill="#DDE2FF"/>
<g style="mix-blend-mode:multiply">
<g style="mix-blend-mode:multiply">
<path d="M191.613 194.747C184.17 211.36 164.36 224.917 147.42 224.917C130.48 224.917 122.757 211.36 130.2 194.747C137.643 178.133 157.453 164.693 174.417 164.693C191.38 164.693 199.08 178.25 191.613 194.747Z" fill="#DDE2FF"/>
</g>
<g style="mix-blend-mode:multiply">
<path d="M144.06 205.76L137.457 194.747L153.93 183.757" stroke="url(#paint8_linear)" stroke-width="0.94" stroke-linecap="round" stroke-linejoin="round"/>
</g>
<g style="mix-blend-mode:multiply">
<path d="M177.1 183.757L183.703 194.747L167.23 205.76" stroke="url(#paint9_linear)" stroke-width="0.94" stroke-linecap="round" stroke-linejoin="round"/>
</g>
<g style="mix-blend-mode:multiply">
<path d="M172.527 178.88L149.31 210.637" stroke="url(#paint10_linear)" stroke-width="0.94" stroke-linecap="round" stroke-linejoin="round"/>
</g>
</g>
</g>
<defs>
<linearGradient id="paint0_linear" x1="155.19" y1="77.4499" x2="216.93" y2="77.4499" gradientUnits="userSpaceOnUse">
<stop offset="0.23" stop-color="#0065FF"/>
<stop offset="0.41" stop-color="#0367FF"/>
<stop offset="0.55" stop-color="#0E6DFF"/>
<stop offset="0.69" stop-color="#1F78FF"/>
<stop offset="0.82" stop-color="#3887FF"/>
<stop offset="0.95" stop-color="#579AFF"/>
<stop offset="1" stop-color="#66A3FF"/>
</linearGradient>
<linearGradient id="paint1_linear" x1="216.93" y1="70.0999" x2="278.623" y2="70.0999" gradientUnits="userSpaceOnUse">
<stop offset="0.63" stop-color="#FF7143"/>
<stop offset="1" stop-color="#FF8A63"/>
</linearGradient>
<linearGradient id="paint2_linear" x1="263.315" y1="116.226" x2="257.091" y2="125.255" gradientUnits="userSpaceOnUse">
<stop stop-color="#7285C0"/>
<stop offset="1" stop-color="#1E36C6"/>
</linearGradient>
<linearGradient id="paint3_linear" x1="137.316" y1="243.747" x2="137.316" y2="106.71" gradientUnits="userSpaceOnUse">
<stop stop-color="#0052CC"/>
<stop offset="1" stop-color="#2684FF"/>
</linearGradient>
<linearGradient id="paint4_linear" x1="55.6967" y1="194.023" x2="260.913" y2="194.023" gradientUnits="userSpaceOnUse">
<stop stop-color="#2684FF"/>
<stop offset="1" stop-color="#B2D4FF"/>
</linearGradient>
<linearGradient id="paint5_linear" x1="19.0989" y1="2858.07" x2="1657.72" y2="2858.07" gradientUnits="userSpaceOnUse">
<stop offset="0.23" stop-color="#0065FF"/>
<stop offset="0.41" stop-color="#0367FF"/>
<stop offset="0.55" stop-color="#0E6DFF"/>
<stop offset="0.69" stop-color="#1F78FF"/>
<stop offset="0.82" stop-color="#3887FF"/>
<stop offset="0.95" stop-color="#579AFF"/>
<stop offset="1" stop-color="#66A3FF"/>
</linearGradient>
<linearGradient id="paint6_linear" x1="194.064" y1="2.06106" x2="188.581" y2="11.5585" gradientUnits="userSpaceOnUse">
<stop stop-color="#7285C0"/>
<stop offset="1" stop-color="#1E36C6"/>
</linearGradient>
<linearGradient id="paint7_linear" x1="13.6155" y1="13.6015" x2="11.2028" y2="24.3489" gradientUnits="userSpaceOnUse">
<stop stop-color="#7285C0"/>
<stop offset="1" stop-color="#1E36C6"/>
</linearGradient>
<linearGradient id="paint8_linear" x1="145.693" y1="183.757" x2="145.693" y2="205.76" gradientUnits="userSpaceOnUse">
<stop stop-color="#7285C0"/>
<stop offset="1" stop-color="#1E36C6"/>
</linearGradient>
<linearGradient id="paint9_linear" x1="175.467" y1="183.757" x2="175.467" y2="205.76" gradientUnits="userSpaceOnUse">
<stop stop-color="#7285C0"/>
<stop offset="1" stop-color="#1E36C6"/>
</linearGradient>
<linearGradient id="paint10_linear" x1="160.918" y1="178.88" x2="160.918" y2="210.637" gradientUnits="userSpaceOnUse">
<stop stop-color="#7285C0"/>
<stop offset="1" stop-color="#1E36C6"/>
</linearGradient>
<clipPath id="clip0">
<rect width="279" height="244" fill="white"/>
</clipPath>
</defs>
</svg>
