<svg width="270" height="201" viewBox="0 0 270 201" fill="none" xmlns="http://www.w3.org/2000/svg">
<g opacity="0.8">
<path d="M269.755 176.636H0V176.771H269.755V176.636Z" fill="#EBEBEB"/>
<path d="M242.726 185.316H224.857V185.451H242.726V185.316Z" fill="#EBEBEB"/>
<path d="M178.697 186.784H174.008V186.919H178.697V186.784Z" fill="#EBEBEB"/>
<path d="M224.318 180.31H213.964V180.445H224.318V180.31Z" fill="#EBEBEB"/>
<path d="M51.6042 181.216H28.3027V181.351H51.6042V181.216Z" fill="#EBEBEB"/>
<path d="M59.8263 181.216H56.4112V181.351H59.8263V181.216Z" fill="#EBEBEB"/>
<path d="M121.471 183.493H70.9294V183.628H121.471V183.493Z" fill="#EBEBEB"/>
<path d="M127.864 152.574H23.6899C22.8738 152.572 22.0917 152.247 21.5151 151.669C20.9385 151.092 20.6147 150.309 20.6147 149.493V3.05363C20.6218 2.24222 20.9488 1.46638 21.5246 0.894626C22.1004 0.322874 22.8785 0.00138999 23.6899 0H127.864C128.681 0 129.465 0.324563 130.042 0.902288C130.62 1.48001 130.945 2.26358 130.945 3.0806V149.493C130.945 150.31 130.62 151.094 130.042 151.671C129.465 152.249 128.681 152.574 127.864 152.574ZM23.6899 0.107902C22.9096 0.109332 22.1617 0.420314 21.6105 0.97259C21.0592 1.52487 20.7496 2.27331 20.7496 3.05363V149.493C20.7496 150.273 21.0592 151.022 21.6105 151.574C22.1617 152.126 22.9096 152.437 23.6899 152.439H127.864C128.645 152.437 129.393 152.126 129.945 151.574C130.497 151.022 130.808 150.274 130.81 149.493V3.05363C130.808 2.27281 130.497 1.52438 129.945 0.972261C129.393 0.420139 128.645 0.109329 127.864 0.107902H23.6899Z" fill="#EBEBEB"/>
<path d="M244.565 152.574H140.386C139.569 152.572 138.787 152.247 138.209 151.67C137.632 151.092 137.307 150.31 137.305 149.493V3.05363C137.314 2.24173 137.642 1.46589 138.219 0.894289C138.795 0.322686 139.574 0.00137483 140.386 0H244.565C245.376 0.00280788 246.153 0.32492 246.727 0.89652C247.302 1.46812 247.628 2.24315 247.635 3.05363V149.493C247.635 150.308 247.312 151.09 246.737 151.667C246.161 152.245 245.381 152.571 244.565 152.574ZM140.386 0.107902C139.605 0.109329 138.857 0.420139 138.305 0.972261C137.753 1.52438 137.442 2.27281 137.44 3.05363V149.493C137.442 150.274 137.753 151.022 138.305 151.574C138.857 152.126 139.605 152.437 140.386 152.439H244.565C245.346 152.437 246.095 152.126 246.647 151.574C247.199 151.022 247.51 150.274 247.511 149.493V3.05363C247.51 2.27281 247.199 1.52438 246.647 0.972261C246.095 0.420139 245.346 0.109329 244.565 0.107902H140.386Z" fill="#EBEBEB"/>
<path d="M234.52 9.15552H67.9513V85.9009H234.52V9.15552Z" fill="#E6E6E6"/>
<path d="M239.165 9.15552H69.0303V85.9009H239.165V9.15552Z" fill="#F0F0F0"/>
<path d="M234.52 85.9009H67.9513V87.978H236.689L234.52 85.9009Z" fill="#E6E6E6"/>
<path d="M241.328 85.9009H72.8662L73.8643 87.978H242.332L241.328 85.9009Z" fill="#F0F0F0"/>
<path d="M235.869 82.4264V12.6407L72.3267 12.6407V82.4264L235.869 82.4264Z" fill="#FAFAFA"/>
<path d="M97.1281 82.4211L120.354 12.6354H142.539L119.307 82.4211H97.1281Z" fill="white"/>
<path d="M124.077 82.4211L147.302 12.6354H155.951L132.72 82.4211H124.077Z" fill="white"/>
<path d="M235.869 82.4264V12.6407H234.989V82.4264H235.869Z" fill="#E6E6E6"/>
<path d="M36.6867 176.636H45.675L45.675 120.969H36.6867L36.6867 176.636Z" fill="#F0F0F0"/>
<path d="M154.543 120.964H45.675V176.63H154.543V120.964Z" fill="#F5F5F5"/>
<path d="M155.26 147.081H55.9958V170.561H155.26V147.081Z" fill="#FAFAFA"/>
<path d="M155.26 130.966H55.9958V143.154H155.26V130.966Z" fill="#FAFAFA"/>
<g style="mix-blend-mode:multiply" opacity="0.7">
<path d="M55.3808 170.555H55.9958V147.076H55.3808V170.555Z" fill="#E6E6E6"/>
</g>
<g style="mix-blend-mode:multiply" opacity="0.7">
<path d="M55.3808 143.154H55.9958V130.966H55.3808V143.154Z" fill="#E6E6E6"/>
</g>
<g style="mix-blend-mode:multiply" opacity="0.7">
<path d="M36.6813 125.447L154.742 125.447V123.882L36.6813 123.882V125.447Z" fill="#E6E6E6"/>
</g>
<path d="M35.6293 124.546H45.6696V120.019H35.6293V124.546Z" fill="#F0F0F0"/>
<path d="M155.595 120.02H45.675V124.546H155.595V120.02Z" fill="#F5F5F5"/>
<path d="M209.492 162.646C208.73 160.909 208.138 159.102 207.722 157.251C207.281 155.389 206.948 153.503 206.724 151.602C206.277 147.807 206.167 143.98 206.395 140.165C206.861 132.526 208.381 124.987 210.911 117.764L211.882 115.067L212.934 112.412C213.29 111.533 213.684 110.664 214.078 109.801C214.472 108.938 214.844 108.058 215.27 107.211C216.149 105.523 216.948 103.802 217.919 102.172L219.327 99.7015L220.843 97.3007C224.868 90.9027 229.72 85.065 235.275 79.9392C234.52 81.6818 233.716 83.3705 232.89 85.0376C232.065 86.7047 231.272 88.3879 230.484 90.055C228.909 93.3946 227.312 96.6856 225.834 100.014L224.712 102.507L223.632 105.005C222.899 106.661 222.23 108.344 221.534 110.006L220.536 112.52C220.201 113.362 219.867 114.193 219.575 115.045L218.62 117.57L217.741 120.117C215.375 126.903 213.467 133.841 212.028 140.882C211.31 144.411 210.7 147.977 210.274 151.597C209.797 155.261 209.535 158.951 209.492 162.646Z" fill="#E6E6E6"/>
<path d="M174.068 149.601C174.608 143.379 174.46 137.117 173.625 130.928C173.544 130.178 173.404 129.428 173.28 128.684C173.156 127.939 173.032 127.195 172.886 126.461C172.74 125.727 172.573 124.988 172.411 124.255L172.169 123.176L171.883 122.097C171.149 119.201 170.23 116.355 169.131 113.578C166.911 107.962 164.11 102.593 160.774 97.5596L159.512 95.6281C159.069 95.0023 158.611 94.3765 158.179 93.7345L157.499 92.7957C157.278 92.4774 157.03 92.1807 156.803 91.8624L155.406 89.9741C154.964 89.3159 154.446 88.7278 153.971 88.0966C153.496 87.4653 153 86.8449 152.525 86.1975C151.527 84.9512 150.513 83.705 149.558 82.3616C155.471 85.2451 160.788 89.2168 165.23 94.0689C169.81 98.9683 173.423 104.688 175.88 110.929C178.346 117.209 179.508 123.926 179.295 130.669C179.181 133.996 178.708 137.301 177.882 140.526C177.46 142.121 176.941 143.688 176.328 145.22C175.724 146.753 174.967 148.22 174.068 149.601Z" fill="#E6E6E6"/>
<path d="M175.692 149.601C175.794 145.77 175.805 142.021 175.719 138.271C175.632 134.521 175.487 130.847 175.179 127.179C174.651 119.902 173.623 112.67 172.104 105.534C171.699 103.769 171.327 101.989 170.831 100.246C170.421 98.4821 169.859 96.7611 169.368 95.0077C168.289 91.5548 167.108 88.1127 165.743 84.7246C163.045 77.916 159.641 71.3771 155.951 64.644C158.968 67.0385 161.729 69.7397 164.189 72.7043C166.686 75.6766 168.914 78.8651 170.847 82.2321L172.266 84.784C172.724 85.6418 173.118 86.532 173.55 87.4114L174.181 88.7278C174.391 89.1702 174.559 89.6288 174.747 90.0766L175.853 92.7741C176.512 94.6084 177.17 96.4536 177.709 98.3257C178.249 100.198 178.707 102.102 179.166 103.991C180.789 111.601 181.353 119.398 180.844 127.163C180.587 131.013 180.046 134.84 179.225 138.611C178.815 140.488 178.324 142.355 177.747 144.189C177.188 146.038 176.501 147.847 175.692 149.601Z" fill="#E6E6E6"/>
<path d="M207.555 154.203C206.595 152.007 205.715 149.774 204.911 147.529C204.501 146.402 204.118 145.274 203.724 144.146L202.645 140.742C201.205 136.189 199.948 131.57 198.815 126.963C196.575 117.688 194.859 108.295 193.673 98.8276C192.492 89.3428 191.924 79.7916 191.974 70.2336C192.031 67.8453 192.114 65.4535 192.222 63.0581C192.276 60.6734 192.578 58.2834 192.789 55.8988C192.999 53.5141 193.258 51.1403 193.711 48.7772C194.164 46.4142 194.564 44.0619 195.071 41.7258C195.988 51.2806 196.689 60.6087 197.65 69.98C198.61 79.3513 199.684 88.6363 200.843 97.9482L204.383 125.938C205.553 135.293 206.708 144.659 207.555 154.203Z" fill="#E6E6E6"/>
<path d="M205.98 152.681C204.847 150.583 203.789 148.441 202.802 146.277C202.3 145.198 201.825 144.119 201.34 143.04L199.953 139.733C198.141 135.342 196.5 130.891 194.963 126.397C191.929 117.399 189.383 108.245 187.334 98.9732C185.276 89.6769 183.793 80.2626 182.894 70.7838C182.707 68.4099 182.543 66.0343 182.403 63.6568C182.225 61.2884 182.268 58.893 182.225 56.5137C182.182 54.1345 182.193 51.7552 182.376 49.3652C182.56 46.9752 182.7 44.6067 182.948 42.2383C184.933 51.588 186.606 60.7813 188.516 69.9583C190.426 79.1354 192.357 88.2639 194.375 97.4032L200.412 124.864C202.392 134.052 204.367 143.256 205.98 152.681Z" fill="#E6E6E6"/>
<path d="M212.146 164.508C210.776 162.796 209.477 161.038 208.251 159.237C207.631 158.341 207.026 157.429 206.427 156.539L204.679 153.76C203.519 151.91 202.435 150.027 201.345 148.144C200.806 147.205 200.293 146.245 199.77 145.29C199.247 144.335 198.729 143.38 198.227 142.415C194.224 134.686 190.714 126.712 187.717 118.541C184.699 110.361 182.276 101.973 180.466 93.4432C180.045 91.2852 179.644 89.1397 179.263 87.0069C178.885 84.8488 178.664 82.6908 178.389 80.5327L178.038 77.2957C177.936 76.2167 177.898 75.1107 177.85 74.0208C177.742 71.8376 177.693 69.6544 177.704 67.4712C180.633 75.7311 183.099 83.8993 185.948 91.9758C188.796 100.052 191.526 108.064 194.504 116.065L203.395 140.116C206.379 148.166 209.389 156.21 212.146 164.508Z" fill="#E6E6E6"/>
<path d="M202.856 150.944C201.484 149.467 200.19 147.92 198.977 146.31C197.736 144.724 196.603 143.073 195.448 141.422C194.294 139.771 193.242 138.066 192.211 136.345C191.672 135.487 191.192 134.624 190.685 133.755C190.177 132.887 189.665 132.024 189.206 131.133C188.268 129.358 187.296 127.6 186.422 125.792C185.548 123.985 184.701 122.167 183.849 120.349C182.997 118.53 182.295 116.647 181.513 114.797L180.973 113.4L180.434 111.986L179.398 109.159C178.001 105.382 176.895 101.525 175.772 97.6675C175.298 95.7145 174.796 93.7668 174.348 91.8084C174.138 90.8265 173.868 89.8608 173.695 88.8681L173.156 85.9008C172.972 84.9135 172.816 83.9208 172.649 82.9281C172.481 81.9354 172.287 80.9589 172.201 79.95C171.974 77.9502 171.773 75.9504 171.597 73.9506C171.527 72.9471 171.402 71.9544 171.375 70.9455C171.348 69.9367 171.316 68.9332 171.311 67.9297C171.278 65.9191 171.302 63.9085 171.381 61.8979C174.078 69.5212 176.134 77.0852 178.67 84.525C179.803 88.3016 181.146 91.9541 182.322 95.6767L184.248 101.212C184.567 102.135 184.852 103.068 185.182 103.985L186.19 106.737C187.453 110.432 188.861 114.074 190.177 117.759C190.873 119.588 191.58 121.406 192.244 123.251L194.337 128.749L198.578 139.782C200.029 143.467 201.459 147.168 202.856 150.944Z" fill="#E6E6E6"/>
<path d="M210.28 159.619C209.196 158.142 208.268 156.557 207.512 154.888C206.734 153.222 206.061 151.508 205.499 149.757C204.392 146.243 203.628 142.629 203.217 138.967C202.804 135.301 202.687 131.608 202.867 127.923C202.926 126.078 203.136 124.249 203.314 122.415C203.493 120.58 203.816 118.768 204.167 116.966C205.548 109.771 207.827 102.779 210.949 96.1515C213.971 89.5385 217.878 83.3674 222.564 77.8081C222.079 79.5669 221.55 81.2915 220.978 82.982C220.466 84.703 219.899 86.3863 219.36 88.0696L217.773 93.1194C217.293 94.8135 216.694 96.4644 216.257 98.1476C214.262 104.772 212.6 111.492 211.278 118.282C210.616 121.656 210.087 125.042 209.691 128.441C209.296 131.84 209.026 135.257 208.882 138.692C208.753 142.129 208.774 145.587 208.985 149.067C209.164 152.611 209.596 156.137 210.28 159.619Z" fill="#E6E6E6"/>
<path d="M207.469 149.671C206.544 148.03 205.725 146.333 205.014 144.589C204.28 142.846 203.649 141.071 203.056 139.28C201.897 135.678 200.979 132.003 200.309 128.279C199.639 124.534 199.208 120.75 199.02 116.95C198.982 116 198.966 115.045 198.944 114.09C198.923 113.135 198.944 112.18 198.944 111.225C198.944 110.27 199.015 109.316 199.063 108.361C199.112 107.406 199.166 106.451 199.268 105.496C199.371 104.541 199.457 103.586 199.586 102.636L200.002 99.7878C200.158 98.8382 200.374 97.8995 200.541 96.9553C200.639 96.486 200.725 96.0112 200.827 95.5472C200.93 95.0832 201.065 94.6085 201.189 94.1445C202.106 90.404 203.37 86.7572 204.965 83.2518C208.122 76.2381 212.702 69.8503 218.507 65.0271C218.108 65.8957 217.671 66.7212 217.266 67.5628L216.63 68.7929L216.052 70.0607L214.887 72.5479L213.835 75.0674C212.47 78.3884 211.299 81.7858 210.328 85.2426L209.945 86.5212L209.627 87.816C209.411 88.6792 209.163 89.5317 208.969 90.4003C208.774 91.2689 208.607 92.1375 208.402 93.0007C208.197 93.8639 208.073 94.7433 207.906 95.6173C207.825 96.0489 207.749 96.486 207.658 96.923C207.566 97.36 207.523 97.797 207.453 98.234C207.323 99.1134 207.167 99.9874 207.064 100.872L206.724 103.51C206.616 104.395 206.557 105.285 206.465 106.17C206.374 107.055 206.298 107.94 206.239 108.83C206.179 109.72 206.104 110.61 206.071 111.501C206.039 112.391 205.958 113.286 205.937 114.198C205.915 115.11 205.899 115.989 205.856 116.896C205.78 120.483 205.823 124.082 205.937 127.686C206.169 134.904 206.74 142.182 207.469 149.671Z" fill="#E6E6E6"/>
<path d="M200.061 142.301L176.355 95.5366L177.305 141.395L200.061 142.301Z" fill="#E6E6E6"/>
<path d="M218.307 129.833H170.653L176.889 176.636H212.065L218.307 129.833Z" fill="#F5F5F5"/>
<path d="M188.537 129.833H170.653L176.889 176.636H186.282L188.537 129.833Z" fill="#EBEBEB"/>
<path d="M68.0376 113.119H52.5699V120.019H68.0376V113.119Z" fill="#E0E0E0"/>
<path d="M103.262 120.02H68.0376V113.119H103.262C103.507 113.119 103.742 113.216 103.915 113.389C104.088 113.562 104.185 113.797 104.185 114.042V119.102C104.183 119.346 104.086 119.579 103.913 119.751C103.74 119.923 103.506 120.02 103.262 120.02Z" fill="#F0F0F0"/>
<path d="M67.0018 114.015H52.5699V119.118H67.0018V114.015Z" fill="#F0F0F0"/>
<path d="M71.1507 108.08H55.6829V113.114H71.1507V108.08Z" fill="#E6E6E6"/>
<path d="M98.5308 113.119H71.1507V108.086H98.5308C98.7755 108.086 99.0101 108.183 99.1832 108.356C99.3562 108.529 99.4534 108.763 99.4534 109.008V112.218C99.4477 112.459 99.3481 112.688 99.1756 112.857C99.0032 113.025 98.7718 113.119 98.5308 113.119Z" fill="#FAFAFA"/>
<path d="M90.5568 108.08H78.8224V113.114H90.5568V108.08Z" fill="#F5F5F5"/>
<path d="M70.1148 108.981H55.6829V112.218H70.1148V108.981Z" fill="#F5F5F5"/>
<path d="M134.878 201C192.65 201 239.483 198.266 239.483 194.893C239.483 191.52 192.65 188.785 134.878 188.785C77.1055 188.785 30.2719 191.52 30.2719 194.893C30.2719 198.266 77.1055 201 134.878 201Z" fill="#F5F5F5"/>
<path d="M199.791 51.739C201.124 47.4229 187.491 46.441 184.205 54.1938C179.603 65.0541 186.315 71.1614 186.315 71.1614C190.226 69.0627 197.876 68.7498 202.057 70.1363L199.791 51.739Z" fill="#263238"/>
<path d="M200.844 190.437L196.635 190.598L196.614 186.05L200.817 185.888L200.844 190.437Z" fill="#B55B52"/>
<path d="M196.468 189.73H201.237C201.322 189.73 201.404 189.758 201.472 189.81C201.539 189.862 201.587 189.934 201.61 190.016L202.646 193.792C202.672 193.881 202.677 193.975 202.66 194.066C202.643 194.157 202.605 194.243 202.549 194.317C202.493 194.39 202.42 194.45 202.336 194.49C202.253 194.53 202.161 194.55 202.068 194.548C200.401 194.515 199.592 194.418 197.499 194.418C196.209 194.418 192.886 194.553 191.105 194.553C189.325 194.553 189.001 192.794 189.724 192.638C192.961 191.92 194.806 190.938 195.805 189.999C195.983 189.827 196.22 189.731 196.468 189.73Z" fill="#407BFF"/>
<path opacity="0.2" d="M196.614 186.056L196.625 188.397L200.833 188.419L200.822 185.888L196.614 186.056Z" fill="black"/>
<path d="M187 101.871C186.315 107.05 188.651 131.619 190.62 142.334C193.236 156.571 195.713 187.442 195.713 187.442L201.383 187.102C201.383 187.102 202.068 153.259 200.331 141.783C200.218 126.726 200.487 100.354 200.487 100.354L187 101.871Z" fill="#263238"/>
<path opacity="0.2" d="M200.358 116.766C200.358 112.947 197.531 109.931 196.824 117.225C196.376 121.87 198.184 129.661 200.304 135.056C200.299 129.18 200.326 122.598 200.358 116.766Z" fill="black"/>
<path d="M225.877 190.906L222.019 191.008L220.201 185.748L224.064 185.646L225.877 190.906Z" fill="#B55B52"/>
<path d="M225.785 189.73H221.027C220.989 189.727 220.951 189.733 220.916 189.746C220.881 189.76 220.85 189.781 220.824 189.809C220.798 189.836 220.779 189.869 220.767 189.905C220.755 189.94 220.752 189.978 220.757 190.016L221.108 193.792C221.144 193.997 221.249 194.183 221.404 194.32C221.56 194.457 221.758 194.537 221.965 194.547C223.616 194.515 224.393 194.418 226.486 194.418C227.776 194.418 229.47 194.553 231.25 194.553C233.031 194.553 232.707 192.794 231.93 192.638C228.44 191.92 227.895 190.938 226.535 189.999C226.318 189.836 226.057 189.742 225.785 189.73Z" fill="#407BFF"/>
<path opacity="0.2" d="M220.207 185.753L221.14 188.462L225.078 188.575L224.07 185.646L220.207 185.753Z" fill="black"/>
<path d="M193.474 101.142C193.474 101.142 202.219 133.162 206.611 142.609C209.465 157.203 219.678 187.787 219.678 187.787L225.613 187.377C225.613 187.377 219.138 156.431 215.157 142.058C212.999 128.706 211.591 106.451 205.446 99.7932L193.474 101.142Z" fill="#263238"/>
<path d="M184.998 78.0564C184.885 80.7539 184.653 83.3705 184.335 86.0195C184.016 88.6685 183.628 91.2905 183.115 93.918L182.916 94.9053L182.808 95.4448C182.741 95.763 182.637 96.0725 182.5 96.3673C182.292 96.8312 181.971 97.2356 181.567 97.5435C181.064 97.912 180.453 98.1019 179.83 98.083C179.425 98.0672 179.027 97.9796 178.654 97.824C178.396 97.7169 178.149 97.5869 177.914 97.4356C177.237 96.974 176.619 96.4303 176.075 95.817C175.584 95.2775 175.136 94.738 174.71 94.1985C173.084 92.0435 171.64 89.7571 170.394 87.3629C170.263 87.1104 170.229 86.8185 170.299 86.5429C170.37 86.2672 170.539 86.027 170.774 85.8678C171.01 85.7086 171.296 85.6416 171.578 85.6796C171.86 85.7175 172.118 85.8577 172.303 86.0735C173.965 88.0373 175.643 90.0497 177.402 91.8193C177.833 92.2617 178.276 92.6879 178.718 93.0655C179.085 93.4049 179.491 93.7 179.927 93.9449C179.997 93.9719 180.062 94.0043 180.067 93.9935C180.072 93.9827 180.035 93.9557 179.846 93.9395C179.553 93.9345 179.267 94.0254 179.031 94.1985C178.881 94.3018 178.758 94.4385 178.67 94.5977C178.637 94.6679 178.67 94.5977 178.67 94.5977L178.734 94.15L178.869 93.195C179.209 90.6539 179.479 88.0859 179.727 85.5178C179.975 82.9497 180.164 80.3493 180.337 77.8136V77.7812C180.371 77.1638 180.649 76.5853 181.11 76.173C181.571 75.7607 182.177 75.5484 182.794 75.5827C183.412 75.617 183.99 75.8952 184.402 76.3561C184.815 76.817 185.027 77.4227 184.993 78.0402L184.998 78.0564Z" fill="#B55B52"/>
<path d="M183.018 74.4525C179.015 76.4109 179.641 81.601 179.641 81.601L186.045 86.1113C186.045 86.1113 188.386 80.4734 187.901 77.7705C187.399 74.992 185.985 73.0228 183.018 74.4525Z" fill="#407BFF"/>
<path opacity="0.2" d="M182.355 78.801C183.293 77.3227 184.906 77.6788 186.784 78.8549C187.22 79.2332 187.586 79.6863 187.863 80.1929C187.46 82.2234 186.864 84.2107 186.083 86.1275L181.567 82.9498C181.387 81.5184 181.663 80.0669 182.355 78.801Z" fill="black"/>
<path d="M172.606 86.8073L171.651 83.1548L168.414 86.0681C168.414 86.0681 169.584 88.0212 171.467 88.2855L172.606 86.8073Z" fill="#B55B52"/>
<path d="M169.169 81.6658L168.511 82.3186C168.011 82.8082 167.72 83.473 167.701 84.1727C167.682 84.8723 167.936 85.552 168.408 86.0682L171.645 83.1549L170.739 81.8223C170.654 81.6982 170.543 81.5941 170.414 81.5174C170.284 81.4407 170.14 81.3933 169.99 81.3784C169.841 81.3635 169.69 81.3815 169.548 81.4311C169.406 81.4808 169.277 81.5609 169.169 81.6658Z" fill="#B55B52"/>
<path d="M170.809 81.9139C169.992 80.8171 169.251 79.6652 168.592 78.4664C168.387 78.0564 167.723 78.6283 168.052 79.2271C168.381 79.826 168.991 81.779 169.638 82.4912C170.286 83.2033 170.809 81.9139 170.809 81.9139Z" fill="#B55B52"/>
<path d="M181.535 77.4145C182.673 87.8379 186.072 95.1051 187 101.871L205.419 99.8096C204.377 93.0388 203.849 88.6094 205.144 76.0712C205.2 75.5259 205.143 74.9748 204.976 74.4528C204.808 73.9308 204.533 73.4495 204.17 73.0395C203.806 72.6294 203.36 72.2996 202.862 72.071C202.364 71.8425 201.823 71.7202 201.275 71.7119C200.153 71.7119 198.912 71.7119 197.66 71.7928C194.854 71.9036 192.059 72.2173 189.298 72.7316C187.356 73.1308 185.29 73.6919 183.811 74.1235C183.108 74.3216 182.496 74.7587 182.081 75.3594C181.665 75.96 181.472 76.6868 181.535 77.4145Z" fill="#407BFF"/>
<path d="M189.298 72.7206C189.298 72.7206 186.342 75.9198 190.749 80.2737C192.39 76.958 194.751 74.0511 197.66 71.7656L189.298 72.7206Z" fill="white"/>
<path d="M195.778 62.4539C195.551 65.2054 195.578 70.1958 197.66 71.782C197.66 71.782 193.058 74.2853 190.577 78.6877C187.34 75.4507 189.298 72.7207 189.298 72.7207C192.217 71.6417 191.893 69.4459 191.132 67.4174L195.778 62.4539Z" fill="#B55B52"/>
<path opacity="0.2" d="M195.27 62.9988C195.41 64.6041 195.206 66.2209 194.672 67.7411C194.299 68.7877 193.015 69.3866 191.656 69.6402C191.591 68.876 191.409 68.1264 191.116 67.4174L195.27 62.9988Z" fill="black"/>
<path d="M199.684 58.6071C198.885 63.0635 198.637 64.968 196.101 67.0073C192.282 70.0717 186.984 68.1133 186.439 63.5059C185.948 59.3571 187.345 52.7642 191.947 51.491C192.961 51.2061 194.031 51.1852 195.055 51.4304C196.08 51.6755 197.025 52.1785 197.8 52.8916C198.575 53.6046 199.155 54.5041 199.485 55.5044C199.814 56.5048 199.883 57.5729 199.684 58.6071Z" fill="#B55B52"/>
<path d="M196.247 55.03C195.168 57.4146 196.112 61.4609 199.533 61.2128C196.765 64.3689 197.423 71.2908 197.423 71.2908C199.154 71.4142 200.883 71.0398 202.408 70.2118C202.408 70.2118 201.329 63.6675 202.467 59.0763C203.395 55.3429 203.261 48.0973 195.168 49.6726C194.224 49.8561 188.073 51.4692 187.453 54.7009C187.404 54.9922 194.019 56.9075 196.247 55.03Z" fill="#263238"/>
<path d="M200.698 61.1372C200.602 61.5601 200.423 61.9599 200.173 62.3136C199.922 62.6673 199.603 62.9679 199.236 63.1981C198.249 63.8078 197.434 63.0039 197.439 61.9033C197.439 60.9106 197.979 59.4 199.085 59.2381C199.33 59.206 199.58 59.2359 199.811 59.325C200.043 59.4142 200.248 59.5599 200.408 59.7487C200.568 59.9376 200.679 60.1636 200.73 60.4061C200.78 60.6486 200.769 60.9 200.698 61.1372Z" fill="#B55B52"/>
<path opacity="0.2" d="M202.246 79.0599C202.175 79.9803 202.347 80.9034 202.745 81.7366C203.142 82.5698 203.752 83.2839 204.512 83.8075C204.609 81.9408 204.771 79.8475 205.009 77.4413C204.07 76.4324 202.467 77.3118 202.246 79.0599Z" fill="black"/>
<path d="M205.553 98.6927L206.568 100.247C206.649 100.371 206.514 100.516 206.298 100.538L186.984 102.696C186.816 102.696 186.671 102.647 186.649 102.545L186.293 100.926C186.293 100.813 186.406 100.7 186.584 100.678L205.241 98.5848C205.298 98.5741 205.356 98.5785 205.411 98.5974C205.466 98.6163 205.515 98.6492 205.553 98.6927Z" fill="#263238"/>
<path d="M203.304 101.061L203.805 101.002C203.903 101.002 203.973 100.932 203.962 100.872L203.487 98.7521C203.487 98.6927 203.379 98.6496 203.277 98.6603L202.78 98.7197C202.678 98.7197 202.608 98.7898 202.624 98.8492L203.099 100.964C203.11 101.029 203.207 101.072 203.304 101.061Z" fill="#407BFF"/>
<path d="M188.429 102.728L188.926 102.674C189.028 102.674 189.098 102.599 189.082 102.539L188.607 100.425C188.607 100.36 188.5 100.322 188.402 100.333L187.901 100.387C187.804 100.387 187.733 100.457 187.744 100.522L188.219 102.637C188.235 102.696 188.327 102.739 188.429 102.728Z" fill="#407BFF"/>
<path d="M195.842 101.892L196.344 101.838C196.441 101.838 196.511 101.768 196.501 101.703L196.026 99.5882C196.026 99.5289 195.918 99.4857 195.821 99.4965L195.319 99.5505C195.222 99.5505 195.152 99.6206 195.163 99.6854L195.637 101.8C195.675 101.865 195.767 101.903 195.842 101.892Z" fill="#407BFF"/>
<path d="M192.066 59.0604C192.023 59.4273 191.796 59.7024 191.559 59.6754C191.321 59.6485 191.159 59.3247 191.203 58.9633C191.246 58.6018 191.472 58.3213 191.715 58.3482C191.958 58.3752 192.125 58.6989 192.066 59.0604Z" fill="#263238"/>
<path d="M187.949 58.5745C187.906 58.9414 187.679 59.2166 187.442 59.1896C187.205 59.1626 187.043 58.8389 187.086 58.4774C187.129 58.116 187.356 57.8354 187.626 57.8624C187.895 57.8894 187.992 58.2131 187.949 58.5745Z" fill="#263238"/>
<path d="M187.701 57.8949L186.849 57.5388C186.849 57.5388 187.21 58.2672 187.701 57.8949Z" fill="#263238"/>
<path d="M188.969 59.3462C188.544 60.1339 188.014 60.8599 187.394 61.5042C187.564 61.6593 187.766 61.7749 187.986 61.843C188.206 61.911 188.439 61.9298 188.667 61.8981L188.969 59.3462Z" fill="#A02724"/>
<path d="M189.692 63.1876C189.675 63.1758 189.661 63.1595 189.652 63.1405C189.644 63.1214 189.641 63.1004 189.643 63.0797C189.645 63.0654 189.65 63.0517 189.657 63.0394C189.665 63.027 189.675 63.0163 189.686 63.0077C189.698 62.9992 189.711 62.993 189.725 62.9896C189.739 62.9862 189.753 62.9857 189.767 62.988C190.218 63.0668 190.682 63.038 191.12 62.904C191.557 62.7699 191.957 62.5343 192.287 62.2165C192.297 62.2058 192.308 62.1972 192.321 62.191C192.334 62.1849 192.348 62.1813 192.362 62.1806C192.376 62.1798 192.391 62.1819 192.404 62.1867C192.418 62.1914 192.43 62.1988 192.441 62.2084C192.451 62.2179 192.46 62.2295 192.466 62.2424C192.472 62.2553 192.476 62.2693 192.477 62.2836C192.477 62.2979 192.475 62.3121 192.471 62.3256C192.466 62.3391 192.458 62.3515 192.449 62.3621C192.099 62.7071 191.671 62.9635 191.202 63.1098C190.733 63.2562 190.235 63.2884 189.751 63.2038L189.692 63.1876Z" fill="#263238"/>
<path d="M194.046 57.1395C194.013 57.1229 193.987 57.0965 193.97 57.0639C193.839 56.826 193.653 56.6224 193.428 56.4696C193.203 56.3168 192.945 56.2192 192.675 56.1845C192.618 56.1845 192.563 56.1618 192.523 56.1213C192.482 56.0809 192.46 56.026 192.46 55.9687C192.46 55.9115 192.482 55.8566 192.523 55.8161C192.563 55.7757 192.618 55.7529 192.675 55.7529C193.016 55.7895 193.342 55.9064 193.628 56.094C193.914 56.2816 194.152 56.5345 194.321 56.832C194.336 56.8564 194.345 56.8834 194.349 56.9116C194.353 56.9398 194.352 56.9685 194.345 56.996C194.338 57.0236 194.325 57.0495 194.308 57.0723C194.291 57.0951 194.27 57.1142 194.245 57.1287C194.215 57.1452 194.181 57.1548 194.147 57.1567C194.112 57.1585 194.078 57.1527 194.046 57.1395Z" fill="#263238"/>
<path d="M186.859 56.4275L186.827 56.4005C186.807 56.3809 186.791 56.3575 186.78 56.3315C186.769 56.3056 186.763 56.2777 186.763 56.2495C186.763 56.2213 186.769 56.1934 186.78 56.1675C186.791 56.1415 186.807 56.118 186.827 56.0984C187.044 55.832 187.32 55.6211 187.635 55.4832C187.949 55.3452 188.292 55.2843 188.634 55.3053C188.692 55.3125 188.744 55.3421 188.779 55.3876C188.815 55.4332 188.83 55.4909 188.823 55.5481C188.816 55.6054 188.787 55.6574 188.741 55.6928C188.695 55.7282 188.638 55.7441 188.58 55.737C188.309 55.7218 188.038 55.7722 187.79 55.884C187.542 55.9957 187.325 56.1655 187.156 56.379C187.122 56.423 187.072 56.4524 187.017 56.4614C186.962 56.4704 186.906 56.4583 186.859 56.4275Z" fill="#263238"/>
<path d="M204.933 74.5549C206.519 76.1735 208.024 77.792 209.492 79.5022C210.226 80.3547 210.965 81.2125 211.65 82.1189C212.396 83.0518 213.086 84.0283 213.716 85.043C213.916 85.3588 214.097 85.6867 214.256 86.0249C214.37 86.2859 214.461 86.5568 214.526 86.8342C214.55 86.9464 214.568 87.0598 214.58 87.1741V87.3845C214.585 87.4779 214.585 87.5716 214.58 87.665V87.8107V87.8754V87.9294L214.553 88.0373C214.412 88.62 214.31 89.208 214.126 89.7799C213.803 90.9458 213.379 92.0813 212.858 93.1734C212.325 94.282 211.664 95.3248 210.889 96.281C210.492 96.7657 210.055 97.2168 209.584 97.6298C209.346 97.8402 209.103 98.0398 208.839 98.234C208.71 98.3258 208.569 98.4175 208.429 98.5038C208.289 98.5901 208.159 98.6657 207.933 98.7843L206.762 96.7936C206.762 96.7666 206.881 96.6695 206.94 96.5939L207.167 96.3404C207.318 96.1623 207.463 95.9735 207.604 95.8009C207.881 95.4024 208.135 94.988 208.364 94.56C208.824 93.6963 209.207 92.7936 209.508 91.8624C209.643 91.3769 209.794 90.9075 209.897 90.4058C209.999 89.904 210.112 89.4238 210.193 88.9275C210.274 88.4311 210.334 87.9186 210.409 87.4169V87.3198V87.2766V87.3737C210.409 87.433 210.409 87.514 210.409 87.5517C210.406 87.5859 210.406 87.6201 210.409 87.6542V87.7891C210.409 87.897 210.409 87.8647 210.409 87.8215C210.409 87.7783 210.236 87.5409 210.112 87.3629C209.573 86.6238 208.893 85.7875 208.203 84.9945C207.512 84.2014 206.789 83.3759 206.044 82.5828L201.594 77.8028L204.933 74.5549Z" fill="#B55B52"/>
<path d="M209.098 98.0616L205.861 101.067L203.762 97.6516C203.762 97.6516 205.78 96.2003 207.593 96.7452L209.098 98.0616Z" fill="#B55B52"/>
<path d="M203.395 101.698L202.316 100.57C202.111 100.354 202 100.066 202.006 99.7678C202.012 99.4699 202.135 99.1864 202.349 98.9787L203.73 97.6245L205.823 101.067L204.922 101.806C204.7 101.981 204.42 102.067 204.138 102.047C203.856 102.027 203.591 101.902 203.395 101.698Z" fill="#B55B52"/>
<path d="M197.633 74.4039C197.385 76.33 202.516 81.9571 202.516 81.9571L207.318 75.9469C207.318 75.9469 205.079 72.807 203.368 72.0948C200.622 70.9349 197.914 72.2081 197.633 74.4039Z" fill="#407BFF"/>
<path d="M191.834 58.3805L190.981 58.0244C190.981 58.0244 191.354 58.7635 191.834 58.3805Z" fill="#263238"/>
<path d="M69.3918 54.604C67.401 56.8106 64.9246 63.425 72.5965 62.0978C80.2683 60.7706 69.3918 54.604 69.3918 54.604Z" fill="#263238"/>
<path d="M71.8358 48.5236C72.3052 45.5886 66.9371 38.8501 64.8222 43.0098C62.2271 48.0164 71.8358 48.5236 71.8358 48.5236Z" fill="#263238"/>
<path d="M71.852 50.3041C74.2852 48.5992 75.375 40.0534 70.9024 41.4237C65.5127 43.0693 71.852 50.3041 71.852 50.3041Z" fill="#263238"/>
<path d="M84.1636 76.481C84.1151 76.9342 84.0719 77.5007 84.0341 78.0186C83.9964 78.5365 83.9748 79.0976 83.9586 79.6371C83.9586 80.7161 83.8939 81.7952 83.9262 82.8472C83.9715 84.9783 84.1644 87.1036 84.5035 89.208C84.5791 89.7476 84.6977 90.2439 84.7949 90.7618L84.8272 90.9399C84.8261 90.9596 84.8261 90.9794 84.8272 90.9992C84.8272 90.9992 84.8272 90.9992 84.8272 91.0478C84.8272 91.0963 85.0862 91.2258 85.4531 91.2636C85.8814 91.3141 86.3142 91.3141 86.7425 91.2636C88.8159 90.9286 90.8436 90.3547 92.785 89.5533L93.8317 91.4146C93.3299 91.7761 92.8498 92.0782 92.3426 92.3804C91.8355 92.6825 91.3337 92.9738 90.7996 93.2328C89.7117 93.7967 88.5669 94.2434 87.3845 94.5654C86.7151 94.7442 86.027 94.8438 85.3344 94.8621C84.4294 94.8882 83.5355 94.6581 82.7555 94.1985C82.2863 93.9074 81.8867 93.517 81.5848 93.0547C81.4412 92.8374 81.3201 92.606 81.2233 92.3642C81.174 92.2515 81.1307 92.1362 81.0938 92.0189L81.0399 91.8463L81.0129 91.7383C80.8672 91.1665 80.6946 90.5892 80.5705 90.0119C80.0534 87.7064 79.7446 85.3591 79.6479 82.9983C79.5886 81.8275 79.567 80.6622 79.6102 79.4915C79.6102 78.9034 79.6587 78.3207 79.7019 77.7327C79.745 77.1446 79.799 76.5835 79.8853 75.9253L84.1636 76.481Z" fill="#FFB573"/>
<path d="M83.6241 71.3934C85.2426 72.1271 85.2426 79.3835 85.2426 79.3835L77.9161 82.7069C77.9161 82.7069 76.6644 73.8859 78.3099 72.2296C79.9554 70.5733 81.2557 70.3252 83.6241 71.3934Z" fill="#263238"/>
<path opacity="0.2" d="M83.2195 72.9419L84.3201 79.8207L80.3439 81.6172L83.2195 72.9419Z" fill="black"/>
<path d="M91.8463 90.4597L94.9053 87.1094L95.8656 90.7996C95.8656 90.7996 93.9072 92.6717 92.2401 92.1322L91.8463 90.4597Z" fill="#FFB573"/>
<path d="M96.8745 87.0015L97.3277 88.8304C97.3617 88.9743 97.3577 89.1246 97.3161 89.2665C97.2745 89.4084 97.1966 89.537 97.0903 89.6397L95.8656 90.7997L94.9053 87.1094L95.4987 86.5699C95.6068 86.4721 95.7385 86.4043 95.8808 86.3731C96.0231 86.342 96.1711 86.3485 96.3101 86.3921C96.4491 86.4357 96.5743 86.5149 96.6733 86.6218C96.7723 86.7287 96.8416 86.8596 96.8745 87.0015Z" fill="#FFB573"/>
<path d="M84.5467 73.0661C84.3417 75.5317 83.1062 81.5418 78.0726 96.1086L61.1859 93.1898C62.5832 86.7157 63.3169 82.5831 62.6695 69.678C62.6539 69.3867 62.6985 69.0953 62.8003 68.822C62.9022 68.5487 63.0593 68.2992 63.2617 68.0892C63.4641 67.8792 63.7076 67.7131 63.977 67.6012C64.2464 67.4894 64.5359 67.4342 64.8276 67.439C66.5207 67.4543 68.2118 67.5606 69.8936 67.7573C72.4765 68.0098 75.0383 68.4443 77.56 69.0575C79.6209 69.5971 81.8275 70.3847 83.1601 70.8703C83.602 71.0308 83.9779 71.3336 84.2289 71.7311C84.4799 72.1286 84.5917 72.5982 84.5467 73.0661Z" fill="#263238"/>
<path opacity="0.2" d="M62.9878 73.2871C64.4499 73.9345 65.5775 75.8444 64.8761 78.8872C64.5407 80.2679 63.8204 81.5251 62.799 82.5127C62.9393 80.1011 62.9609 77.2795 62.8476 73.6432L62.9878 73.2871Z" fill="black"/>
<path d="M72.1379 59.2544C72.1973 61.8063 71.9006 66.4083 69.8882 67.7571C69.8882 67.7571 71.3503 69.586 75.4344 72.7368C79.3296 70.5787 77.56 69.0789 77.56 69.0789C74.9218 67.9513 75.3426 65.9227 76.1519 64.0884L72.1379 59.2544Z" fill="#FFB573"/>
<path opacity="0.2" d="M73.778 61.2292L76.1519 64.0833C75.9565 64.5091 75.7995 64.9514 75.6825 65.4051C74.6574 65.0706 73.1576 63.889 73.1306 62.7075C73.1144 62.1518 73.6431 61.4666 73.778 61.2292Z" fill="black"/>
<path d="M70.1364 54.5554C70.3683 58.7366 70.3737 60.49 72.4724 62.648C75.6286 65.8851 80.7108 64.6982 81.7358 60.5332C82.6584 56.7566 82.1243 50.5738 78.0456 48.8851C77.1458 48.5077 76.1643 48.367 75.1947 48.4765C74.2251 48.586 73.2997 48.9419 72.5067 49.5104C71.7137 50.079 71.0795 50.8411 70.6646 51.7242C70.2496 52.6074 70.0678 53.5821 70.1364 54.5554Z" fill="#FFB573"/>
<path d="M70.0986 57.3554C71.9005 57.4472 73.9669 53.9727 73.1306 52.4027C74.0748 52.1923 78.0995 52.6455 78.0833 51.1619C79.9015 52.4297 83.8939 52.4944 84.5575 50.7734C85.2211 49.0524 83.7104 47.45 81.7466 48.0759C80.3277 44.418 73.5029 43.6627 70.9564 47.1371C67.7301 47.0562 60.7219 52.3326 70.0986 57.3554Z" fill="#263238"/>
<path d="M77.3658 55.71C77.3658 56.0499 77.5384 56.3251 77.765 56.3251C77.9916 56.3251 78.1642 56.0553 78.1696 55.7154C78.175 55.3755 77.9916 55.095 77.7704 55.095C77.5492 55.095 77.3658 55.3701 77.3658 55.71Z" fill="#263238"/>
<path d="M81.2071 55.7316C81.2071 56.0715 81.3851 56.3466 81.6063 56.352C81.8275 56.3574 82.011 56.0769 82.0164 55.737C82.0218 55.3971 81.8383 55.1219 81.6171 55.1165C81.3959 55.1111 81.2125 55.3917 81.2071 55.7316Z" fill="#263238"/>
<path d="M81.52 55.138L82.3347 54.906C82.3347 54.906 81.9139 55.5696 81.52 55.138Z" fill="#263238"/>
<path d="M80.0202 56.3357C80.3182 57.1067 80.7212 57.8329 81.2179 58.4937C81.0437 58.6165 80.8449 58.6999 80.6353 58.7381C80.4257 58.7763 80.2102 58.7684 80.004 58.7149L80.0202 56.3357Z" fill="#ED893E"/>
<path d="M78.024 60.0585C78.1898 60.0853 78.3577 60.0979 78.5257 60.0962C78.5389 60.097 78.5521 60.095 78.5645 60.0905C78.5769 60.0859 78.5883 60.0789 78.5979 60.0698C78.6075 60.0607 78.6151 60.0497 78.6203 60.0376C78.6256 60.0254 78.6282 60.0124 78.6282 59.9991C78.6269 59.9724 78.6157 59.947 78.5967 59.9281C78.5778 59.9091 78.5525 59.8979 78.5257 59.8966C78.1015 59.9017 77.682 59.8066 77.3014 59.6191C76.9208 59.4317 76.5898 59.157 76.3353 58.8176C76.3287 58.8058 76.3197 58.7954 76.3088 58.7873C76.298 58.7791 76.2855 58.7734 76.2723 58.7703C76.2591 58.7673 76.2454 58.767 76.2321 58.7696C76.2188 58.7722 76.2061 58.7775 76.195 58.7852C76.1772 58.8042 76.1673 58.8293 76.1673 58.8554C76.1673 58.8814 76.1772 58.9065 76.195 58.9255C76.4105 59.2252 76.683 59.4795 76.9968 59.6739C77.3106 59.8683 77.6596 59.999 78.024 60.0585Z" fill="#263238"/>
<path d="M77.4575 60.6302C77.6007 60.7157 77.7504 60.7897 77.9053 60.8514C77.9173 60.8567 77.9303 60.8594 77.9434 60.8595C77.9565 60.8597 77.9695 60.8571 77.9816 60.8521C77.9937 60.847 78.0046 60.8396 78.0138 60.8302C78.0229 60.8208 78.0301 60.8097 78.0348 60.7975C78.04 60.7855 78.0428 60.7725 78.0429 60.7594C78.043 60.7463 78.0405 60.7333 78.0355 60.7212C78.0304 60.7091 78.023 60.6981 78.0136 60.689C78.0042 60.6799 77.9931 60.6727 77.9808 60.668C77.5886 60.514 77.238 60.2704 76.9569 59.9565C76.6759 59.6427 76.4722 59.2673 76.3623 58.8606C76.3598 58.8477 76.3546 58.8354 76.3472 58.8246C76.3398 58.8137 76.3302 58.8045 76.3191 58.7974C76.308 58.7903 76.2956 58.7856 76.2826 58.7835C76.2697 58.7814 76.2564 58.7819 76.2436 58.7851C76.2183 58.7903 76.196 58.8049 76.181 58.8259C76.166 58.8469 76.1594 58.8728 76.1627 58.8984C76.2535 59.2582 76.4147 59.5965 76.6369 59.8938C76.8591 60.191 77.138 60.4413 77.4575 60.6302Z" fill="#263238"/>
<path d="M68.8577 57.8141C69.0902 58.5888 69.617 59.2415 70.3252 59.6322C71.2693 60.1394 71.9761 59.3463 71.9113 58.332C71.852 57.4202 71.2855 56.0553 70.2389 55.9689C70.0105 55.9541 69.782 55.9965 69.5742 56.0923C69.3663 56.1881 69.1856 56.3342 69.0485 56.5174C68.9113 56.7006 68.8221 56.9151 68.7888 57.1416C68.7554 57.368 68.7791 57.5991 68.8577 57.8141Z" fill="#FFB573"/>
<path d="M75.6177 53.8109C75.656 53.8293 75.6991 53.8351 75.7408 53.8273C75.7825 53.8195 75.8207 53.7987 75.8497 53.7678C76.5025 53.115 77.6787 53.3038 77.6895 53.3038C77.7415 53.3118 77.7946 53.2994 77.8378 53.2693C77.881 53.2392 77.911 53.1936 77.9214 53.1419C77.9261 53.1157 77.9254 53.0888 77.9194 53.0628C77.9135 53.0368 77.9024 53.0123 77.8868 52.9907C77.8712 52.969 77.8514 52.9508 77.8287 52.9369C77.8059 52.923 77.7806 52.9139 77.7542 52.91C77.7002 52.91 76.3623 52.6887 75.5692 53.4872C75.5501 53.5058 75.5349 53.5281 75.5246 53.5526C75.5142 53.5772 75.5089 53.6035 75.5089 53.6302C75.5089 53.6568 75.5142 53.6832 75.5246 53.7078C75.5349 53.7323 75.5501 53.7546 75.5692 53.7732L75.6177 53.8109Z" fill="#263238"/>
<path d="M82.5073 53.8863C82.5413 53.8909 82.5759 53.8869 82.608 53.8747C82.64 53.8624 82.6685 53.8423 82.6908 53.8162C82.7243 53.7754 82.7403 53.723 82.7352 53.6704C82.7302 53.6178 82.7045 53.5693 82.6638 53.5357C82.4249 53.3272 82.1397 53.1788 81.8319 53.1027C81.5241 53.0267 81.2026 53.0253 80.8942 53.0987C80.8444 53.1148 80.8029 53.1498 80.7787 53.1963C80.7544 53.2427 80.7494 53.2968 80.7647 53.3468C80.7715 53.3724 80.7834 53.3963 80.7997 53.4171C80.8161 53.4379 80.8365 53.4551 80.8597 53.4678C80.8829 53.4804 80.9085 53.4882 80.9349 53.4905C80.9612 53.4929 80.9877 53.4899 81.0129 53.4817C81.2577 53.4258 81.5124 53.4295 81.7555 53.4924C81.9987 53.5552 82.2232 53.6756 82.4102 53.8432C82.4381 53.8661 82.4716 53.881 82.5073 53.8863Z" fill="#263238"/>
<path d="M76.4594 189.563H80.6784L80.4086 179.792H76.1896L76.4594 189.563Z" fill="#FFB573"/>
<path d="M80.9266 189.071H76.1843C76.1036 189.069 76.025 189.097 75.9654 189.152C75.9059 189.206 75.8701 189.282 75.866 189.363L75.5153 193.112C75.5117 193.209 75.5275 193.306 75.5619 193.396C75.5962 193.487 75.6484 193.569 75.7154 193.639C75.7823 193.709 75.8626 193.765 75.9515 193.803C76.0403 193.842 76.136 193.862 76.2328 193.862C77.8837 193.835 78.6714 193.738 80.7593 193.738C82.038 193.738 84.6977 193.868 86.4673 193.868C88.2369 193.868 88.2477 192.12 87.4978 191.958C84.1582 191.246 82.8041 190.269 81.6441 189.33C81.441 189.166 81.1881 189.074 80.9266 189.071Z" fill="#263238"/>
<g opacity="0.2">
<path opacity="0.2" d="M80.4086 179.792L80.5489 184.831H76.3299L76.1896 179.792H80.4086Z" fill="black"/>
</g>
<path d="M78.0833 96.1084C78.0833 96.1084 80.7162 122.453 81.5362 135.304C82.3886 148.667 81.2718 183.86 81.2718 183.86H75.5692C75.5692 183.86 72.0462 144.217 72.0462 136.307C69.8018 121.972 63.6137 107.125 65.7178 93.9773L78.0833 96.1084Z" fill="#407BFF"/>
<path opacity="0.6" d="M78.0833 96.1084C78.0833 96.1084 80.7162 122.453 81.5362 135.304C82.3886 148.667 81.2718 183.86 81.2718 183.86H75.5692C75.5692 183.86 72.0462 144.217 72.0462 136.307C69.8018 121.972 63.6137 107.125 65.7178 93.9773L78.0833 96.1084Z" fill="white"/>
<path opacity="0.2" d="M69.122 106.537C67.9224 106.86 66.8531 107.548 66.063 108.507C66.9316 113.972 68.3991 119.577 69.7479 125.188C70.7136 119.092 70.1363 108.819 69.122 106.537Z" fill="#407BFF"/>
<path d="M75.0729 184.059H81.7682L82.2591 181.923L74.7599 181.664L75.0729 184.059Z" fill="#263238"/>
<path d="M82.5451 189.811C82.9061 189.841 83.2671 189.75 83.5702 189.552C83.6381 189.492 83.6901 189.416 83.7212 189.332C83.7523 189.247 83.7616 189.155 83.7482 189.066C83.7453 189.011 83.7285 188.957 83.6993 188.91C83.67 188.863 83.6293 188.824 83.581 188.796C83.0415 188.516 81.3798 189.374 81.1909 189.471C81.1725 189.48 81.1577 189.495 81.1489 189.514C81.1401 189.532 81.1378 189.553 81.1424 189.573C81.1449 189.594 81.1535 189.613 81.1669 189.628C81.1804 189.643 81.1981 189.654 81.2179 189.66C81.6548 189.75 82.099 189.801 82.5451 189.811ZM83.3004 188.937C83.3638 188.933 83.4272 188.946 83.4839 188.974C83.5047 188.984 83.5224 188.999 83.5348 189.018C83.5473 189.037 83.5539 189.059 83.554 189.082C83.5623 189.141 83.5558 189.201 83.535 189.257C83.5143 189.312 83.48 189.362 83.4353 189.401C83.1817 189.633 82.4858 189.67 81.5524 189.519C82.0924 189.228 82.678 189.031 83.2842 188.937H83.3004Z" fill="#407BFF"/>
<path d="M81.2233 189.66H81.261C81.7682 189.433 82.7609 188.521 82.6854 188.041C82.6854 187.928 82.5829 187.788 82.3077 187.761C82.2108 187.752 82.1132 187.763 82.0206 187.793C81.928 187.822 81.8422 187.87 81.7682 187.933C81.2287 188.376 81.1424 189.509 81.137 189.552C81.1365 189.569 81.1402 189.587 81.1477 189.603C81.1552 189.619 81.1663 189.633 81.1801 189.643C81.1932 189.652 81.2079 189.657 81.2233 189.66ZM82.2268 187.949H82.2861C82.4696 187.949 82.4803 188.041 82.4857 188.063C82.5343 188.354 81.8599 189.066 81.3474 189.379C81.3878 188.899 81.5763 188.442 81.8869 188.073C81.9825 187.994 82.1026 187.95 82.2268 187.949Z" fill="#407BFF"/>
<path d="M41.4937 182.937L45.3944 184.545L49.3814 175.621L45.4861 174.014L41.4937 182.937Z" fill="#FFB573"/>
<path d="M45.7019 184.513L41.58 182.171C41.5101 182.13 41.4274 182.116 41.3477 182.132C41.268 182.148 41.197 182.192 41.1484 182.258L38.8447 185.23C38.7894 185.308 38.751 185.397 38.7321 185.49C38.7132 185.584 38.7142 185.68 38.7351 185.773C38.7559 185.866 38.7962 185.954 38.8532 186.031C38.9102 186.107 38.9827 186.171 39.0659 186.218C40.5172 187.005 41.2563 187.297 43.0691 188.343C44.1805 188.98 46.4248 190.404 47.9625 191.278C49.5001 192.152 50.4496 190.679 49.8885 190.199C47.3636 187.944 46.7162 186.45 46.209 185.09C46.1166 184.842 45.9361 184.636 45.7019 184.513Z" fill="#263238"/>
<g opacity="0.2">
<path opacity="0.2" d="M49.3814 175.627L47.3258 180.223L43.4252 178.616L45.4807 174.014L49.3814 175.627Z" fill="black"/>
</g>
<path d="M73.3411 95.2885C73.3411 95.2885 66.4461 125.566 65.2808 138.385C62.3512 150.292 48.556 179.657 48.556 179.657L43.2795 177.499C43.2795 177.499 51.5502 146.127 56.0929 137.484C56.5245 123.154 56.449 105.89 61.0025 93.1628L73.3411 95.2885Z" fill="#407BFF"/>
<path opacity="0.6" d="M73.3411 95.2885C73.3411 95.2885 66.4461 125.566 65.2808 138.385C62.3512 150.292 48.556 179.657 48.556 179.657L43.2795 177.499C43.2795 177.499 51.5502 146.127 56.0929 137.484C56.5245 123.154 56.449 105.89 61.0025 93.1628L73.3411 95.2885Z" fill="white"/>
<path d="M42.7184 177.488L48.9066 180.04L50.1744 178.254L43.3442 175.152L42.7184 177.488Z" fill="#263238"/>
<path d="M46.7162 185.915C47.0151 186.12 47.3742 186.219 47.7359 186.196C47.8243 186.178 47.9066 186.137 47.9754 186.079C48.0443 186.02 48.0973 185.946 48.1297 185.861C48.1562 185.813 48.17 185.76 48.17 185.705C48.17 185.65 48.1562 185.596 48.1297 185.548C47.8222 185.041 45.9339 184.96 45.7235 184.955C45.703 184.953 45.6823 184.957 45.6646 184.968C45.647 184.979 45.6335 184.995 45.6264 185.014C45.6145 185.031 45.6082 185.051 45.6082 185.071C45.6082 185.091 45.6145 185.111 45.6264 185.128C45.9649 185.423 46.3297 185.687 46.7162 185.915ZM47.7952 185.527C47.8526 185.557 47.9024 185.599 47.9409 185.651C47.9528 185.67 47.9591 185.693 47.9591 185.716C47.9591 185.739 47.9528 185.761 47.9409 185.78C47.9193 185.835 47.8851 185.883 47.841 185.922C47.7968 185.96 47.7442 185.988 47.6873 186.002C47.3474 186.072 46.727 185.764 45.9879 185.171C46.6079 185.186 47.2209 185.306 47.8006 185.527H47.7952Z" fill="#407BFF"/>
<path d="M45.6534 185.139C45.6534 185.139 45.6534 185.139 45.6911 185.139C46.2306 185.187 47.5578 184.885 47.7251 184.432C47.7629 184.324 47.7629 184.162 47.5363 184C47.4586 183.946 47.371 183.907 47.2784 183.887C47.1858 183.867 47.0901 183.865 46.9967 183.882C46.317 184 45.6749 184.961 45.648 184.961C45.6389 184.975 45.6341 184.992 45.6341 185.009C45.6341 185.026 45.6389 185.043 45.648 185.058C45.6422 185.071 45.6396 185.085 45.6406 185.099C45.6415 185.113 45.6459 185.127 45.6534 185.139ZM47.369 184.151C47.3891 184.158 47.4076 184.169 47.423 184.184C47.5686 184.286 47.547 184.356 47.5363 184.378C47.4338 184.653 46.495 184.917 45.9177 184.961C46.1885 184.562 46.5771 184.258 47.0291 184.092C47.1459 184.074 47.2653 184.095 47.369 184.151Z" fill="#407BFF"/>
<path d="M77.6895 55.1111L78.5041 54.8845C78.5041 54.8845 78.0671 55.5157 77.6895 55.1111Z" fill="#263238"/>
<path d="M61.1157 92.1593L60.4251 93.5944C60.3442 93.7023 60.4629 93.8426 60.6571 93.8803L78.0348 96.88C78.1858 96.907 78.3261 96.88 78.3531 96.7559L78.7685 95.2723C78.7955 95.1698 78.6768 95.0565 78.5095 95.0295L61.4124 92.0784C61.3602 92.0652 61.3054 92.0657 61.2534 92.0799C61.2015 92.0941 61.154 92.1214 61.1157 92.1593Z" fill="#263238"/>
<path d="M63.1227 94.4737L62.6641 94.3982C62.5724 94.3982 62.5131 94.3227 62.5293 94.2633L63.0688 92.3373C63.0688 92.2833 63.1713 92.2509 63.263 92.2671L63.7216 92.3427C63.8133 92.3427 63.8726 92.4182 63.8565 92.4775L63.317 94.4036C63.317 94.4575 63.2306 94.4899 63.1227 94.4737Z" fill="#407BFF"/>
<g opacity="0.6">
<path opacity="0.6" d="M63.1227 94.4737L62.6641 94.3982C62.5724 94.3982 62.5131 94.3227 62.5293 94.2633L63.0688 92.3373C63.0688 92.2833 63.1713 92.2509 63.263 92.2671L63.7216 92.3427C63.8133 92.3427 63.8726 92.4182 63.8565 92.4775L63.317 94.4036C63.317 94.4575 63.2306 94.4899 63.1227 94.4737Z" fill="white"/>
</g>
<path d="M76.7183 96.8206L76.2652 96.7397C76.1734 96.7397 76.1087 96.6642 76.1249 96.6102L76.6644 94.6842C76.6644 94.6248 76.7669 94.5925 76.8586 94.6086L77.3172 94.6896C77.4089 94.6896 77.4683 94.7651 77.4521 94.8191L76.9126 96.7451C76.9018 96.8045 76.8101 96.8368 76.7183 96.8206Z" fill="#407BFF"/>
<g opacity="0.6">
<path opacity="0.6" d="M76.7183 96.8206L76.2652 96.7397C76.1734 96.7397 76.1087 96.6642 76.1249 96.6102L76.6644 94.6842C76.6644 94.6248 76.7669 94.5925 76.8586 94.6086L77.3172 94.6896C77.4089 94.6896 77.4683 94.7651 77.4521 94.8191L76.9126 96.7451C76.9018 96.8045 76.8101 96.8368 76.7183 96.8206Z" fill="white"/>
</g>
<path d="M69.9583 95.6554L69.4997 95.5745C69.408 95.5745 69.3487 95.4989 69.3648 95.445L69.9043 93.5135C69.9043 93.4596 70.0068 93.4272 70.0986 93.4434L70.5572 93.5189C70.6435 93.5189 70.7082 93.5945 70.692 93.6538L70.1525 95.5799C70.1363 95.6338 70.05 95.6662 69.9583 95.6554Z" fill="#407BFF"/>
<g opacity="0.6">
<path opacity="0.6" d="M69.9583 95.6554L69.4997 95.5745C69.408 95.5745 69.3487 95.4989 69.3648 95.445L69.9043 93.5135C69.9043 93.4596 70.0068 93.4272 70.0986 93.4434L70.5572 93.5189C70.6435 93.5189 70.7082 93.5945 70.692 93.6538L70.1525 95.5799C70.1363 95.6338 70.05 95.6662 69.9583 95.6554Z" fill="white"/>
</g>
<path d="M59.2706 95.4503L62.4321 98.7305L58.1538 99.0165C58.1538 99.0165 56.6917 96.7344 57.5442 95.2021L59.2706 95.4503Z" fill="#FFB573"/>
<path d="M63.8025 73.147C62.5832 75.0892 61.3207 77.0207 60.0583 78.9359C58.7958 80.8512 57.5064 82.7934 56.3518 84.6494L56.1684 84.9407C56.1684 84.9407 56.1684 84.9731 56.1252 85.0108C56.0809 85.1342 56.0537 85.2631 56.0443 85.3939C56.0101 85.8209 56.0301 86.2505 56.1037 86.6725C56.2846 87.7037 56.5517 88.718 56.9021 89.7046C57.2474 90.7404 57.6521 91.7817 58.0999 92.8121C58.5476 93.8426 59.0116 94.8893 59.481 95.8981L57.6682 97.0311C56.2204 95.1299 54.9559 93.0959 53.8917 90.9562C53.3249 89.8189 52.8731 88.6279 52.5429 87.4009C52.3565 86.6964 52.2586 85.9715 52.2516 85.2428C52.2532 84.797 52.3094 84.3532 52.4188 83.921C52.4889 83.6696 52.5791 83.4242 52.6886 83.1873L52.818 82.9283L52.9259 82.7179C53.4978 81.6389 54.0697 80.6354 54.6632 79.6211C55.2566 78.6068 55.8501 77.6249 56.4543 76.6376C57.6628 74.6576 58.8929 72.71 60.1824 70.7839L63.8025 73.147Z" fill="#FFB573"/>
<path d="M64.9463 67.5361C60.8028 66.8239 57.6898 73.2171 57.6898 73.2171L62.5454 79.1949C62.5454 79.1949 65.6584 75.7151 66.349 73.4869C67.0827 71.167 66.964 67.8868 64.9463 67.5361Z" fill="#263238"/>
<path d="M62.799 102.259L59.2005 102.302L58.1538 99.0164L62.4321 98.7305L62.799 102.259Z" fill="#FFB573"/>
<path d="M205.079 25.179C206.447 25.1804 207.801 25.4513 209.064 25.9762C210.327 26.5011 211.474 27.2698 212.44 28.2383C213.406 29.2067 214.172 30.356 214.694 31.6205C215.215 32.885 215.483 34.2398 215.48 35.6077V114.829C215.478 117.587 214.381 120.231 212.431 122.181C210.481 124.131 207.837 125.228 205.079 125.231H178.697C176.55 125.231 174.492 126.084 172.974 127.601C171.457 129.119 170.604 131.178 170.604 133.324V140.996L154.467 127.173C153 125.919 151.132 125.23 149.202 125.231H64.6765C61.9186 125.228 59.2746 124.131 57.3245 122.181C55.3744 120.231 54.2776 117.587 54.2747 114.829V35.6077C54.2776 32.8499 55.3744 30.2058 57.3245 28.2557C59.2746 26.3056 61.9186 25.2088 64.6765 25.2059H205.079V25.179ZM205.079 17.1133H64.6765C59.7758 17.1275 55.08 19.0806 51.6147 22.5459C48.1494 26.0112 46.1963 30.707 46.1821 35.6077V114.829C46.1963 119.73 48.1494 124.426 51.6147 127.891C55.08 131.356 59.7758 133.31 64.6765 133.324H149.202L178.697 158.584V133.324H205.079C209.979 133.31 214.675 131.356 218.14 127.891C221.606 124.426 223.559 119.73 223.573 114.829V35.6077C223.559 30.707 221.606 26.0112 218.14 22.5459C214.675 19.0806 209.979 17.1275 205.079 17.1133Z" fill="#407BFF"/>
<path d="M128.867 191.17C129.364 191.17 129.833 191.105 129.984 190.884C130.026 190.826 130.048 190.756 130.048 190.685C130.048 190.613 130.026 190.543 129.984 190.485C129.951 190.432 129.908 190.386 129.857 190.35C129.806 190.314 129.748 190.288 129.687 190.274C129.045 190.102 127.734 190.863 127.675 190.895C127.659 190.905 127.647 190.92 127.64 190.937C127.633 190.955 127.632 190.974 127.637 190.992C127.641 191.01 127.65 191.027 127.663 191.04C127.677 191.052 127.694 191.06 127.713 191.062C128.094 191.134 128.48 191.17 128.867 191.17ZM129.45 190.431C129.509 190.425 129.569 190.425 129.628 190.431C129.702 190.45 129.766 190.496 129.806 190.56C129.876 190.674 129.855 190.728 129.833 190.76C129.666 191.008 128.695 191.014 127.977 190.917C128.433 190.665 128.933 190.506 129.45 190.447V190.431Z" fill="#407BFF"/>
<path d="M127.708 191.068H127.745C128.198 190.863 129.083 190.032 128.997 189.6C128.997 189.498 128.9 189.368 128.652 189.347C128.562 189.336 128.471 189.344 128.385 189.37C128.299 189.396 128.219 189.439 128.15 189.498C127.681 189.902 127.61 190.933 127.61 190.976C127.611 190.993 127.615 191.009 127.622 191.024C127.63 191.039 127.64 191.052 127.654 191.062C127.671 191.069 127.689 191.071 127.708 191.068ZM128.582 189.514H128.641C128.803 189.514 128.814 189.595 128.819 189.616C128.873 189.875 128.279 190.528 127.81 190.814C127.834 190.381 127.997 189.966 128.274 189.632C128.358 189.555 128.468 189.513 128.582 189.514Z" fill="#407BFF"/>
<path d="M123.483 190.976H127.319L127.368 182.095H123.532L123.483 190.976Z" fill="#CE7A63"/>
<path d="M127.281 190.533H123.089C123.015 190.532 122.942 190.558 122.885 190.605C122.828 190.653 122.789 190.719 122.776 190.792L122.145 194.224C122.13 194.308 122.134 194.394 122.156 194.477C122.178 194.56 122.218 194.636 122.273 194.702C122.328 194.767 122.397 194.82 122.475 194.855C122.552 194.891 122.637 194.909 122.722 194.909C124.233 194.882 126.413 194.79 128.312 194.79C130.529 194.79 130.804 194.914 133.41 194.914C134.985 194.914 135.358 193.323 134.694 193.177C131.673 192.519 130.869 192.449 128.22 190.852C127.942 190.662 127.617 190.552 127.281 190.533Z" fill="#263238"/>
<path opacity="0.2" d="M127.368 182.095L127.346 186.676H123.505L123.532 182.095H127.368Z" fill="black"/>
<path d="M98.0938 189.848C98.1231 189.442 97.9978 189.039 97.7431 188.721C97.6851 188.679 97.6152 188.656 97.5435 188.656C97.4718 188.656 97.4019 188.679 97.3438 188.721C97.2926 188.751 97.2487 188.793 97.2151 188.842C97.1816 188.892 97.1592 188.948 97.1496 189.007C97.0094 189.643 97.8456 190.987 97.8834 191.046C97.8936 191.062 97.9082 191.074 97.9255 191.082C97.9427 191.09 97.9618 191.092 97.9805 191.089C97.9983 191.087 98.0149 191.079 98.0275 191.066C98.0402 191.053 98.0484 191.037 98.0506 191.019C98.0962 190.631 98.1106 190.239 98.0938 189.848ZM97.3169 189.233C97.3087 189.176 97.3087 189.118 97.3169 189.061C97.3215 189.025 97.3341 188.99 97.3537 188.959C97.3732 188.928 97.3994 188.902 97.4302 188.883C97.5435 188.818 97.5974 188.845 97.6298 188.883C97.8888 189.061 97.9481 190.032 97.8888 190.744C97.603 190.282 97.4088 189.769 97.3169 189.233Z" fill="#407BFF"/>
<path d="M98.0506 190.987C98.0538 190.974 98.0538 190.961 98.0506 190.949C97.8186 190.485 96.9392 189.562 96.5076 189.627C96.4051 189.627 96.281 189.713 96.2702 189.967C96.2645 190.152 96.3302 190.331 96.4536 190.469C96.8851 190.817 97.4115 191.028 97.9643 191.073C97.98 191.075 97.996 191.073 98.0104 191.066C98.0248 191.059 98.0369 191.049 98.0452 191.035C98.0523 191.02 98.0542 191.003 98.0506 190.987ZM96.4321 190.037V189.983C96.4321 189.821 96.5022 189.81 96.5238 189.81C96.7827 189.767 97.4679 190.393 97.7808 190.889C97.334 190.844 96.911 190.666 96.5669 190.377C96.4922 190.287 96.4486 190.175 96.4428 190.059L96.4321 190.037Z" fill="#407BFF"/>
<path d="M97.9912 191.03L101.752 191.294L103.3 182.344L99.545 182.079L97.9912 191.03Z" fill="#CE7A63"/>
<path d="M97.9535 190.172L102.102 189.805C102.18 189.798 102.257 189.817 102.323 189.859C102.388 189.901 102.438 189.964 102.464 190.037L103.726 193.366C103.756 193.443 103.767 193.525 103.76 193.607C103.752 193.689 103.726 193.768 103.683 193.838C103.641 193.909 103.582 193.968 103.513 194.013C103.444 194.057 103.366 194.085 103.284 194.094C101.784 194.202 99.6044 194.305 97.7215 194.472C95.5257 194.666 96.9554 194.661 94.3765 194.893C92.8173 195.033 92.1484 193.485 92.758 193.274C95.6282 192.357 96.1192 191.726 97.0741 190.544C97.1883 190.426 97.3249 190.333 97.476 190.269C97.6271 190.205 97.7894 190.172 97.9535 190.172Z" fill="#263238"/>
<path opacity="0.2" d="M103.3 182.349L102.502 186.962L98.7412 186.698L99.5397 182.079L103.3 182.349Z" fill="black"/>
<path d="M128.749 93.4163C128.749 93.4163 121.735 122.879 119.081 133.815C116.151 145.787 104.665 185.516 104.665 185.516L97.8132 184.032C97.8132 184.032 105.258 149.898 108.188 133.194C110.438 120.37 115.52 93.4163 115.52 93.4163H128.749Z" fill="#263238"/>
<path d="M105.744 183.434L105.237 186.072L97.0525 185.198L96.9392 182.781L105.744 183.434Z" fill="#407BFF"/>
<path opacity="0.3" d="M124.708 107.071C119.852 107.713 118.973 124.729 118.86 134.71L119.081 133.809C120.537 127.842 123.284 116.335 125.485 107.125C125.233 107.05 124.968 107.031 124.708 107.071Z" fill="black"/>
<path d="M136.027 93.4163C136.027 93.4163 134.155 122.107 133.329 133.788C132.461 145.938 129.013 185.786 129.013 185.786H122.469C122.469 185.786 121.784 146.666 121.595 134.716C121.384 121.692 122.534 93.4163 122.534 93.4163H136.027Z" fill="#263238"/>
<path d="M129.893 183.202C129.919 183.202 129.628 185.899 129.628 185.899H121.724L121.417 183.488L129.893 183.202Z" fill="#407BFF"/>
<path d="M117.883 65.8202C116.836 67.9405 115.774 70.1687 114.792 72.3591C113.81 74.5495 112.844 76.7669 112.094 78.9789L111.803 79.8043L111.544 80.6244L111.425 80.9966C111.435 80.9088 111.435 80.8201 111.425 80.7323C111.389 80.369 111.215 80.0333 110.94 79.7935C110.729 79.6533 110.724 79.7126 110.805 79.7558C110.955 79.8252 111.112 79.8777 111.274 79.9122C111.758 80.0139 112.248 80.0807 112.741 80.1118C115.103 80.1845 117.467 80.1142 119.82 79.9014H119.885C120.233 79.8751 120.579 79.9753 120.859 80.1836C121.14 80.3918 121.336 80.6942 121.411 81.0352C121.486 81.3762 121.436 81.733 121.27 82.0401C121.103 82.3471 120.832 82.5839 120.505 82.7069C118.055 83.6949 115.487 84.3587 112.866 84.6815C112.113 84.7587 111.354 84.7659 110.6 84.7031C110.144 84.6661 109.692 84.5867 109.251 84.4657C108.603 84.2972 108.001 83.9836 107.492 83.5485C107.124 83.233 106.821 82.848 106.602 82.4155C106.381 81.9667 106.249 81.4794 106.213 80.9805C106.191 80.5825 106.222 80.1833 106.305 79.7935L106.424 79.254L106.65 78.2775L106.909 77.3226C107.618 74.8407 108.474 72.4032 109.472 70.023C110.465 67.6599 111.517 65.3886 112.741 63.0903C113.101 62.4178 113.711 61.9135 114.439 61.686C115.166 61.4586 115.955 61.5262 116.633 61.8743C117.312 62.2225 117.826 62.8232 118.066 63.5472C118.306 64.2711 118.252 65.0603 117.915 65.7447L117.883 65.8202Z" fill="#CF7A64"/>
<path d="M119.928 80.0471L122.312 79.1084L122.194 83.5432C121.231 83.4758 120.302 83.1618 119.496 82.6314C119.299 82.4882 119.15 82.2877 119.069 82.0571C118.989 81.8265 118.982 81.5769 119.048 81.342L119.183 80.8564C119.234 80.6721 119.328 80.5025 119.458 80.3617C119.587 80.221 119.748 80.1132 119.928 80.0471Z" fill="#CE7A63"/>
<path d="M126.24 78.6067L125.382 82.448L122.194 83.5378L122.312 79.1084L126.24 78.6067Z" fill="#CE7A63"/>
<path d="M130.68 45.9771C130.745 46.2793 130.955 46.4897 131.15 46.4519C131.344 46.4142 131.462 46.1336 131.398 45.8315C131.333 45.5293 131.128 45.292 130.928 45.3513C130.729 45.4107 130.621 45.6696 130.68 45.9771Z" fill="#263238"/>
<path d="M130.923 46.495C131.473 47.3493 132.139 48.1229 132.903 48.7933C132.725 48.9836 132.508 49.1329 132.267 49.2308C132.025 49.3286 131.766 49.3726 131.506 49.3598L130.923 46.495Z" fill="#BA4D3C"/>
<path d="M129.229 44.515C129.183 44.5144 129.139 44.4971 129.105 44.4664C129.088 44.4498 129.075 44.4301 129.066 44.4083C129.056 44.3866 129.052 44.3632 129.052 44.3396C129.052 44.316 129.056 44.2927 129.066 44.2709C129.075 44.2491 129.088 44.2294 129.105 44.2128C129.296 43.9959 129.536 43.8279 129.806 43.7228C130.075 43.6177 130.366 43.5785 130.653 43.6086C130.7 43.6178 130.742 43.6449 130.769 43.6842C130.796 43.7235 130.807 43.7719 130.799 43.819C130.796 43.8425 130.788 43.8651 130.775 43.8855C130.763 43.9058 130.747 43.9236 130.728 43.9377C130.709 43.9518 130.687 43.9619 130.664 43.9674C130.641 43.973 130.617 43.9739 130.594 43.9701C130.366 43.9479 130.136 43.981 129.924 44.0665C129.712 44.1519 129.523 44.2873 129.375 44.461C129.355 44.4798 129.333 44.4944 129.308 44.5037C129.282 44.513 129.256 44.5168 129.229 44.515Z" fill="#263238"/>
<path d="M122.264 51.491C122.803 54.2964 123.143 58.1863 121.185 60.0584C121.185 60.0584 121.956 62.9016 127.168 62.9016C132.898 62.9016 129.925 60.4037 129.925 60.4037C127.54 59.6646 127.562 56.9508 128.107 54.7712L122.264 51.491Z" fill="#CE7A63"/>
<path d="M114.317 60.0691C110.718 60.8946 108.35 70.595 108.35 70.595L114.376 75.1053C116.607 73.5039 118.188 71.1548 118.833 68.4855C120.041 63.6623 117.991 59.2275 114.317 60.0691Z" fill="#407BFF"/>
<path opacity="0.2" d="M117.397 66.8184C115.344 69.0049 114.148 71.8594 114.031 74.8571L114.349 75.1052C116.578 73.5021 118.159 71.1537 118.806 68.4854C118.876 68.1995 118.94 67.9082 118.994 67.6276L117.397 66.8184Z" fill="black"/>
<path d="M137.036 63.9158C137.813 68.0214 138.983 77.765 136.793 94.328C136.772 94.4638 136.709 94.5895 136.612 94.6866C136.515 94.7837 136.389 94.8471 136.253 94.8675C134.373 95.0895 132.473 95.0641 130.599 94.792C126.823 94.2524 123.688 94.4844 120.025 94.792C118.409 94.9174 116.788 94.9409 115.169 94.8621C115.082 94.8576 114.997 94.8352 114.919 94.7963C114.842 94.7573 114.773 94.7027 114.717 94.6358C114.661 94.5689 114.62 94.4912 114.596 94.4076C114.571 94.324 114.565 94.2363 114.576 94.1499C115.142 89.8878 117.198 74.0424 114.344 60.0852C116.61 59.6507 118.903 59.3624 121.206 59.222C124.112 59.052 127.025 59.052 129.93 59.222C130.891 59.3084 131.835 59.4486 132.676 59.5943C133.754 59.7919 134.746 60.3101 135.524 61.0812C136.302 61.8523 136.829 62.8403 137.036 63.9158Z" fill="#407BFF"/>
<path d="M120.44 47.3853C121.422 51.0647 121.816 53.2659 124.082 54.7927C127.497 57.0964 131.743 54.4528 131.878 50.5576C131.997 47.0508 130.367 41.6287 126.423 40.8842C125.554 40.7157 124.656 40.7726 123.815 41.0492C122.974 41.3259 122.217 41.8132 121.617 42.4648C121.018 43.1164 120.595 43.9107 120.389 44.7719C120.183 45.6332 120.2 46.5328 120.44 47.3853Z" fill="#CE7A63"/>
<path d="M129.045 48.5128C130.195 51.0485 129.833 53.3684 128.403 54.4474C126.785 55.6775 122.248 55.8663 120.527 54.1237C121.179 53.4709 121.541 52.6562 120.705 51.4963C119.868 50.3363 116.799 48.5344 116.739 46.058C116.68 43.5817 118.32 43.3011 118.223 43.3011C116.772 42.6537 116.863 40.323 118.46 39.039C120.154 37.674 122.906 37.2964 126.181 37.96C128.247 38.37 130.276 38.3322 129.919 37.0266C132.353 38.4239 131.144 43.5979 128.792 44.2776C129.164 45.211 130.793 46.6946 130.793 46.6946C130.793 46.6946 130.394 48.2376 129.045 48.5128Z" fill="#263238"/>
<path d="M118.46 42.7994C118.46 42.7994 117.576 43.339 115.25 42.6592C115.876 43.8191 118.201 43.8623 118.762 43.5979C119.324 43.3336 118.46 42.7994 118.46 42.7994Z" fill="#263238"/>
<path d="M127.567 47.5848C127.779 48.4519 128.272 49.2242 128.97 49.7807C129.893 50.509 130.588 49.84 130.588 48.7718C130.551 47.8114 130.049 46.2792 129.002 45.9663C127.956 45.6534 127.324 46.5382 127.567 47.5848Z" fill="#CE7A63"/>
<path d="M137.181 63.3548C137.661 64.4716 138.115 65.5991 138.579 66.7213C139.043 67.8435 139.496 68.9711 139.944 70.0986L142.609 76.8371C143.057 77.9485 143.504 79.0545 143.958 80.1174L144.303 80.8835L144.389 81.0723V81.1155C144.389 81.1155 144.389 81.1155 144.357 81.0615C144.28 80.9264 144.191 80.7983 144.092 80.6784C143.892 80.4572 143.652 80.2744 143.386 80.1389C143.19 80.0296 142.979 79.9514 142.76 79.907C142.625 79.8768 142.488 79.8587 142.35 79.853C142.265 79.8475 142.181 79.8475 142.096 79.853C142.012 79.8585 141.929 79.8729 141.848 79.8962C141.802 79.9048 141.759 79.9212 141.719 79.9447C141.88 79.914 142.037 79.8594 142.183 79.7829C142.398 79.6858 142.641 79.5671 142.879 79.4376C143.86 78.8981 144.896 78.31 145.927 77.7111C146.957 77.1123 148.025 76.508 149.094 75.9362H149.126C149.426 75.7746 149.772 75.7226 150.106 75.7891C150.439 75.8556 150.739 76.0364 150.954 76.3003C151.169 76.5643 151.285 76.8948 151.282 77.2351C151.279 77.5754 151.158 77.904 150.939 78.1643C149.325 80.122 147.518 81.9115 145.544 83.5055C145.279 83.7105 145.004 83.9155 144.697 84.1259C144.331 84.3828 143.94 84.6032 143.531 84.7841C143.356 84.8588 143.176 84.9201 142.992 84.9676C142.838 85.0079 142.681 85.035 142.522 85.0485C142.398 85.0566 142.274 85.0566 142.15 85.0485C141.969 85.0453 141.788 85.0237 141.611 84.9837C141.357 84.9272 141.112 84.8365 140.882 84.714C140.58 84.5524 140.31 84.3345 140.089 84.072C139.977 83.9383 139.876 83.7957 139.787 83.6458L139.739 83.554L139.706 83.5001L139.588 83.2789C139.42 82.9822 139.28 82.7016 139.124 82.4103C138.535 81.2773 138.001 80.1605 137.505 79.0383C136.464 76.7994 135.487 74.5658 134.532 72.3214C134.058 71.1993 133.59 70.0735 133.13 68.9441C132.671 67.8165 132.212 66.6889 131.775 65.556C131.484 64.8405 131.489 64.0387 131.789 63.327C132.089 62.6152 132.66 62.0517 133.375 61.7605C134.09 61.4693 134.892 61.4743 135.604 61.7743C136.316 62.0743 136.879 62.6447 137.17 63.3602L137.181 63.3548Z" fill="#CF7A64"/>
<path d="M151.263 73.7027C150.574 74.0974 149.969 74.6241 149.484 75.2527C148.999 75.8813 148.643 76.5994 148.435 77.366L149.768 79.0762L152.681 78.1752C152.912 78.1024 153.112 77.9542 153.248 77.7544L154.742 75.5478C154.859 75.333 154.911 75.0895 154.894 74.8458C154.877 74.6021 154.791 74.3684 154.645 74.1721L153.064 72.0464L151.263 73.7027Z" fill="#CE7A63"/>
<path d="M129.261 66.0469C129.596 70.3252 134.306 75.9145 134.306 75.9145L140.947 70.9348C140.947 70.9348 139.938 64.9193 136.496 61.6553C132.239 57.6251 128.943 62.0437 129.261 66.0469Z" fill="#407BFF"/>
<path d="M130.874 59.2057C130.259 57.4038 123.186 57.0909 118.924 57.5225C114.662 57.9541 116.809 61.2721 117.527 61.736C115.595 62.4536 116.626 65.8633 120.224 67.5358C123.823 69.2083 131.641 61.38 130.874 59.2057Z" fill="#263238"/>
</g>
</svg>
